<svg width="1216" height="1784" xmlns="http://www.w3.org/2000/svg">

 <g>
  <title>background</title>
  <rect fill="none" id="canvas_background" height="402" width="582" y="-1" x="-1"/>
 </g>
 <g>
  <title>Layer 1</title>
  <g stroke="null" id="svgg">
   <path fill-rule="evenodd" fill="#000000" d="m360.994768,213.788723c-107.68978,110.939092 -205.802797,211.989104 -218.02826,224.553912l-22.225657,22.841285l-54.370426,383.872323c-29.904485,211.130228 -54.370426,384.926398 -54.370426,386.214711c0,2.309354 542.725259,542.076598 545.788382,542.815351c0.982001,0.237242 651.697346,-436.4289 654.847558,-439.437967c1.372399,-1.309335 -1.876913,-4.89499 -34.865542,-38.481228c-20.35475,-20.721123 -30.721318,-30.622217 -31.033636,-29.637212c-0.258263,0.816833 -2.117158,6.816949 -4.132212,13.336595c-34.751426,112.392574 -154.450448,102.530521 -298.612408,-24.607085l-13.111366,-11.561786l-4.291375,3.759833c-47.55648,41.688498 -75.728198,62.27148 -111.257417,81.292871c-134.07768,71.773166 -214.394556,12.754002 -207.325349,-152.351308c1.378405,-32.20483 10.3005,-95.782642 15.252549,-108.683793c0.393401,-1.027047 -1.849886,-2.096137 -8.648817,-4.123203c-56.631731,-16.889217 -117.650934,-47.091005 -154.987996,-76.719208c-114.674901,-90.992759 -56.157247,-200.259146 143.609397,-268.146351c15.856164,-5.387492 19.444822,-6.940075 19.051421,-8.237397c-15.672977,-51.766772 -20.126517,-144.615422 -9.327509,-194.547323c28.039584,-129.657174 153.246221,-126.476932 304.10801,7.723874c5.192293,4.618708 10.171369,8.973147 11.063278,9.675864c1.408436,1.10813 3.093153,-0.045046 12.832081,-8.795967c43.346188,-38.952709 90.076825,-70.48185 129.501015,-87.368064c3.666738,-1.570601 6.669799,-3.19826 6.669799,-3.615686c0,-1.237261 -418.098213,-421.605789 -419.263401,-421.542725c-0.5886,0.033034 -89.17891,90.82759 -196.871693,201.769686m242.232934,254.602544c-41.295097,6.453579 -58.9561,77.752261 -44.424287,179.330811c2.204247,15.393692 8.819991,50.589571 9.669858,51.439438c0.198202,0.195199 8.096253,-1.405433 17.555897,-3.558628c31.619233,-7.195335 68.025346,-13.486749 100.179124,-17.306643c7.0632,-0.840857 14.477759,-1.780815 16.480801,-2.090131c3.321386,-0.513523 4.528617,-1.747782 13.748015,-14.069342c20.994402,-28.057602 42.045862,-53.48152 65.899178,-79.584129l13.444706,-14.711998l-3.024083,-2.576627c-1.666699,-1.417445 -7.648797,-6.609738 -13.297556,-11.537762c-67.580893,-58.959103 -135.266892,-91.734515 -176.231652,-85.334991m401.067852,6.012129c-39.442208,13.573837 -86.461139,44.265124 -135.801437,88.632353l-5.40551,4.861956l8.369532,8.79897c21.844268,22.967413 50.415394,57.133242 74.370814,88.929656c6.372496,8.456621 8.114272,10.16236 10.805015,10.588794c1.762797,0.279285 10.096292,1.360387 18.519879,2.402449l15.309607,1.894932l4.057136,-4.087166c2.231275,-2.24629 25.754254,-26.757277 52.271286,-54.466524c26.520035,-27.709247 50.469449,-52.721745 53.220253,-55.580659l5.006103,-5.201302l-44.925798,-44.931804c-24.706186,-24.715195 -45.370251,-44.925798 -45.916808,-44.916789c-0.543554,0.006006 -4.991088,1.390417 -9.880072,3.075135m-182.390931,134.978598c-12.606852,12.913164 -43.901754,49.433393 -50.79378,59.271422c-1.129151,1.615647 2.105146,1.708742 58.358491,1.708742c39.427192,0 59.355508,-0.33334 58.974119,-0.988007c-3.513582,-6.006123 -48.003936,-57.331444 -56.712814,-65.424695l-2.372418,-2.201244l-7.453598,7.633782m-34.442111,108.500607c-22.309743,1.225249 -42.928762,2.513562 -48.790738,3.045104l-6.80794,0.618631l-14.063336,21.330745c-26.646163,40.418203 -50.199173,81.406987 -71.577967,124.560979l-11.012226,22.22866l5.639749,11.853083c19.877263,41.790602 47.472394,89.884629 77.701209,135.429058l13.832101,20.838243l15.93124,1.147169c62.64386,4.516604 177.276718,2.708761 180.411914,-2.840896c0.453462,-0.801817 2.126167,-3.234297 3.71779,-5.408513l2.897954,-3.952029l-20.844249,-21.513931c-11.462685,-11.832062 -26.414928,-27.34888 -33.225871,-34.48115l-12.381622,-12.964216l-6.555683,2.621673c-81.067641,32.433063 -161.153281,-50.613596 -126.209659,-130.87041c21.652072,-49.72469 82.890499,-72.812225 131.140686,-49.439399l5.840954,2.828884l32.114738,-33.52918l32.114738,-33.532183l-4.937033,-7.237378l-4.937033,-7.234375l-7.02416,-0.612625c-23.177627,-2.015054 -39.508275,-2.603654 -80.620185,-2.90396c-25.264755,-0.18619 -48.823771,-0.177181 -52.355372,0.018018m-127.92741,11.856086c-32.225851,5.5917 -78.24176,14.699985 -79.334875,15.703008c-1.204228,1.10813 28.688245,85.446105 30.285874,85.446105c0.37238,0 4.144225,-6.612741 8.384547,-14.696982c10.994208,-20.955362 27.805345,-50.193167 40.292074,-70.07944c5.910025,-9.408591 10.744954,-17.300636 10.744954,-17.534875c0,-0.567579 -1.123145,-0.44145 -10.372574,1.162185m-146.201039,35.343029c-107.098177,37.358083 -173.228591,90.551309 -164.348538,132.191757c7.390534,34.646319 60.448622,75.599066 137.813488,106.36543c15.303601,6.084202 47.718645,17.375713 48.14508,16.772098c0.135138,-0.192196 2.171213,-6.795928 4.525613,-14.672958c8.57374,-28.706263 21.054463,-62.929151 35.114796,-96.302171l8.348511,-19.80519l-8.378541,-19.522902c-13.17443,-30.697293 -27.931474,-71.124505 -37.484212,-102.68668c-3.159221,-10.432635 -1.120142,-10.23143 -23.736197,-2.339385m93.314125,191.511228c-8.351514,21.637057 -25.646144,72.929345 -25.646144,76.055532c0,1.783818 87.085776,18.703066 88.578298,17.210545c0.231236,-0.231236 -2.789844,-5.474581 -6.714845,-11.651878c-13.045298,-20.525924 -31.853472,-52.550571 -41.856669,-71.262646c-5.432538,-10.16236 -10.180378,-18.483843 -10.546751,-18.489849c-0.369377,-0.006006 -2.084125,3.654726 -3.813888,8.138296m-38.030769,123.599999c-0.831848,2.450498 -6.411536,32.508139 -8.27944,44.580446c-12.69394,82.136731 -3.882958,150.933863 22.489926,175.604012c33.409058,31.246853 118.011302,-3.099159 207.955992,-84.425064l5.789902,-5.234336l-12.450692,-13.450712c-22.117547,-23.892356 -46.352252,-52.980008 -67.190495,-80.644209c-5.831945,-7.741892 -11.00622,-14.075349 -11.498722,-14.075349c-2.321366,0 -41.775586,-5.243345 -56.271364,-7.477623c-16.537859,-2.552602 -58.322454,-10.693901 -72.436843,-14.120394c-5.477584,-1.327353 -7.840993,-1.54958 -8.108266,-0.756771m403.572405,19.961349c-20.634035,2.597648 -17.279615,0.726741 -28.727285,16.024335c-21.015423,28.087633 -42.057874,53.502541 -65.9202,79.614159l-13.444706,14.711998l3.024083,2.576627c1.663696,1.414442 7.648797,6.606735 13.297556,11.537762c75.830302,66.154438 151.183117,98.839758 188.078729,81.572155c18.994363,-8.889062 33.174819,-40.48427 36.24695,-80.764332l0.309315,-4.060139l-59.604762,-61.385577c-35.042723,-36.087788 -60.283454,-61.334525 -61.247436,-61.259448c-0.900918,0.06907 -6.306429,0.714729 -12.012245,1.43246m-201.520432,8.21037c0,1.918956 35.273959,43.054891 51.63764,60.217386l7.862015,8.246406l4.928024,-4.78688c10.738947,-10.435638 54.112162,-61.322513 54.112162,-63.48772c0,-0.315321 -26.670188,-0.573585 -59.271422,-0.573585c-32.598231,0 -59.268419,0.174178 -59.268419,0.384392" id="path0"/>
  </g>
 </g>
</svg>